# xmcd
#
# Track frame offsets:
#	150
#	95483
#	126214
#	140057
#	164834
#	192421
#	216601
#	242031
#	278885
#
# Disc length: 4156 seconds
#
# Revision: 1
# Processed by: cddbd v1.5.2PL0 Copyright (c) Steve Scherf et al.
# Submitted via: audiograbber 1.83.01
#
DISCID=96103a09
DTITLE=Grateful Dead - 72-10-02 Springfield Civic Centre Arena, Springfield MA
DYEAR=1900
DGENRE=
TTITLE0=Playing In The Band
TTITLE1=Casey Jones
TTITLE2=Promised Land
TTITLE3=Me and Bobby McGee
TTITLE4=China Cat Sunflower
TTITLE5=I Know You Rider
TTITLE6=Tomorrow Is Forever
TTITLE7=Mississippi Half-Step
TTITLE8=Stella Blue
EXTD=
EXTT0=
EXTT1=
EXTT2=
EXTT3=
EXTT4=
EXTT5=
EXTT6=
EXTT7=
EXTT8=
PLAYORDER=
